<svg width="99" height="99" viewBox="0 0 99 99" fill="none" xmlns="http://www.w3.org/2000/svg">
<path d="M52.0447 23.4775C52.0447 36.4438 62.5559 46.955 75.5222 46.955L79.6284 23.5413L75.5224 0C62.5559 0 52.0447 10.5112 52.0447 23.4775Z" fill="#80D4FF"/>
<path d="M75.5225 0V46.9552C88.4888 46.9552 99 36.444 99 23.4777C99 10.5114 88.4888 0 75.5225 0Z" fill="#6DAAFC"/>
<path d="M0 23.4775C0 36.4438 10.5112 46.955 23.4775 46.955L27.5837 23.5413L23.4775 0C10.5112 0 0 10.5112 0 23.4775Z" fill="#FF3377"/>
<path d="M23.4775 0V46.9552C36.4438 46.9552 46.955 36.444 46.955 23.4777C46.955 10.5114 36.444 0 23.4775 0Z" fill="#CC295F"/>
<path d="M18.3149 14.2085L14.2087 18.3149L19.3714 23.4774L14.2087 28.6401L18.3149 32.7462L23.4776 27.5837L26.634 23.4774L23.4776 19.3712L18.3149 14.2085Z" fill="#ECFAFF"/>
<path d="M32.7466 18.3149L28.6402 14.2085L23.4775 19.3712V27.5837L28.6402 32.7462L32.7466 28.6401L27.5839 23.4774L32.7466 18.3149Z" fill="#D6EDFE"/>
<path d="M43.631 48.9546L40.7928 73.514L43.631 98.9997H57.7584V89.5404L61.584 86.3443C65.3682 83.1829 67.5553 78.5057 67.5553 73.5747V57.2263L43.631 48.9546Z" fill="#FEBFAD"/>
<path d="M28.8082 28.5039L28.8013 56.9401L18.0874 64.2071V73.2175C18.0874 78.3949 20.4974 83.2774 24.6075 86.4263L28.7695 89.615L28.761 98.9997H43.5816V28.5059C43.5816 24.4264 40.2746 21.1191 36.1949 21.1191C32.1162 21.1191 28.8094 24.4252 28.8082 28.5039Z" fill="#FECEC0"/>
<path d="M72.8994 24.726L68.6871 20.5137L64.5809 24.62L72.8994 32.9384L75.5224 30.3156L77.613 24.5566L75.5224 22.1031L72.8994 24.726Z" fill="#7733FF"/>
<path d="M82.6099 15.0156L75.5225 22.103V30.3156L86.716 19.1218L82.6099 15.0156Z" fill="#5F29CC"/>
</svg>
