<svg width="99" height="99" viewBox="0 0 99 99" fill="none" xmlns="http://www.w3.org/2000/svg">
<g clip-path="url(#clip0)">
<path d="M93.8932 16.4962L76.6686 9.32028C75.1275 8.67775 73.3766 8.67775 71.8354 9.32028L54.6107 16.4962C52.3941 17.4201 50.9597 19.5184 50.9597 21.838V52.7177L50.9655 84.0749V84.0769C51.0877 87.1882 53.7547 89.6748 57.0273 89.6748H91.4766C94.8287 89.6748 97.5442 87.0679 97.5442 83.8518V21.8378C97.5444 19.5184 96.1099 17.4201 93.8932 16.4962ZM73.9592 26.5583C71.7081 26.5583 69.8832 24.7333 69.8832 22.4823C69.8832 20.2312 71.7081 18.4062 73.9592 18.4062C76.2103 18.4062 78.0351 20.2312 78.0351 22.4823C78.0351 24.7333 76.2103 26.5583 73.9592 26.5583Z" fill="#FEDBA6"/>
<path d="M64.5529 84.0764V84.0745L64.5521 80.3697C65.661 78.6936 66.3088 76.687 66.3088 74.531C66.3088 73.3995 66.1307 72.3085 65.8012 71.2849C67.1195 69.5168 67.9007 67.3255 67.9007 64.9553C67.9007 63.8334 67.7259 62.7523 67.4018 61.7366C68.7329 59.9635 69.522 57.7621 69.522 55.3793C69.522 51.5984 67.5325 48.2751 64.5471 46.3955V21.8375C64.5471 19.518 65.9814 17.4198 68.1981 16.4957L81.0457 11.1424L76.6686 9.31979C75.1275 8.67726 73.3766 8.67726 71.8354 9.31979L54.6107 16.4957C52.3941 17.4196 50.9597 19.518 50.9597 21.8375V44.7686V52.7172V52.7176L50.9655 84.0748V84.0764V84.0768C51.0877 87.1881 53.7547 89.6747 57.0273 89.6747H62.7844C62.7844 89.6747 62.7846 89.6745 62.7846 89.6743H70.6145C67.3421 89.6743 64.6751 87.1879 64.5529 84.0764Z" fill="#FECE85"/>
<path d="M15.4539 90.1597H1.4556V49.0343H15.4539V90.1597Z" fill="#8AC9FE"/>
<path d="M51.3628 79.3189H53.7568C56.401 79.3189 58.5446 81.4625 58.5446 84.1067C58.5446 86.7508 56.401 88.8944 53.7568 88.8944H28.0771C26.7839 88.8944 25.5325 88.4565 24.5062 87.6695C21.7993 85.594 18.9351 85.1545 15.4539 84.9478V54.502C23.6413 45.1473 34.0167 44.2682 33.2907 30.2893C33.165 27.8704 35.0926 25.8394 37.5148 25.8394C39.3676 25.8394 41.0148 27.0419 41.5554 28.814C43.753 36.0166 44.3025 43.1649 41.4015 50.5915H58.9108C61.555 50.5915 63.6986 52.7351 63.6986 55.3793C63.6986 58.0234 61.555 60.167 58.9108 60.167H52.9546H57.2895C59.9337 60.167 62.0772 62.3106 62.0772 64.9548C62.0772 67.599 59.9337 69.7426 57.2895 69.7426H52.9546H55.6977C58.3419 69.7426 60.4855 71.8862 60.4855 74.5303C60.4855 77.1745 58.3419 79.3181 55.6977 79.3181H51.3628V79.3189Z" fill="#FFF3DE"/>
<path d="M51.3628 79.3189H53.7568C56.401 79.3189 58.5446 81.4625 58.5446 84.1067C58.5446 86.7508 56.401 88.8944 53.7568 88.8944H28.0771C26.7839 88.8944 25.5325 88.4565 24.5062 87.6695C21.7993 85.594 18.9351 85.1545 15.4539 84.9478V54.502C23.6413 45.1473 34.0167 44.2682 33.2907 30.2893C33.165 27.8704 35.0926 25.8394 37.5148 25.8394C39.3676 25.8394 41.0148 27.0419 41.5554 28.814C43.753 36.0166 44.3025 43.1649 41.4015 50.5915H58.9108C61.555 50.5915 63.6986 52.7351 63.6986 55.3793C63.6986 58.0234 61.555 60.167 58.9108 60.167H52.9546H57.2895C59.9337 60.167 62.0772 62.3106 62.0772 64.9548C62.0772 67.599 59.9337 69.7426 57.2895 69.7426H52.9546H55.6977C58.3419 69.7426 60.4855 71.8862 60.4855 74.5303C60.4855 77.1745 58.3419 79.3181 55.6977 79.3181H51.3628V79.3189Z" fill="#FFF3DE"/>
<path d="M43.3218 42.0942C40.135 45.8086 35.2937 48.2392 30.807 52.6377C29.6834 53.7393 29.0418 55.2417 29.0418 56.8152V79.7902C29.0418 82.4961 30.8714 84.8908 33.5034 85.5193C35.646 86.0309 37.5835 86.9874 39.4807 88.8941H28.0771C26.7843 88.8941 25.5331 88.4564 24.5071 87.67C21.8003 85.5952 18.9355 85.1551 15.4548 84.9481V54.503C23.6479 45.1416 34.0324 44.268 33.2889 30.2597C33.1629 27.8527 35.1038 25.8398 37.5146 25.8398C38.4404 25.8398 39.3179 26.1407 40.0283 26.6628C40.7387 27.1849 41.2861 27.9264 41.5558 28.8133C42.9045 33.2353 43.6323 37.6355 43.3218 42.0942Z" fill="#FFE5C2"/>
<path d="M94.457 15.1537L77.2283 7.97602C75.3384 7.18885 73.1709 7.18905 71.2812 7.97621L63.0093 11.4217C62.2699 11.7299 61.9201 12.5787 62.2281 13.3182C62.5361 14.0576 63.385 14.4075 64.1246 14.0993L72.3965 10.6537C73.5769 10.1618 74.9318 10.1616 76.1132 10.6535L93.341 17.8308C95.0166 18.5298 96.0996 20.1016 96.0996 21.8347V83.8547C96.0996 86.2665 94.0282 88.2285 91.4822 88.2285H89.131C88.3299 88.2285 87.6808 88.8776 87.6808 89.6787C87.6808 90.4798 88.3299 91.1289 89.131 91.1289H91.4822C95.6274 91.1289 99 87.8657 99 83.8547V21.8347C99 18.9273 97.2169 16.305 94.457 15.1537Z" fill="black"/>
<path d="M82.81 88.2285H58.4429C59.4462 87.0881 59.9955 85.6412 59.9955 84.11C59.9955 82.5818 59.4423 81.1813 58.527 80.0954C59.1042 79.8009 59.6386 79.4156 60.1104 78.944C61.2883 77.7658 61.9369 76.1994 61.9369 74.5329C61.9369 72.9442 61.339 71.4933 60.3577 70.3907C60.8436 70.1156 61.2961 69.7745 61.7014 69.3688C62.8793 68.1911 63.528 66.6247 63.528 64.9577C63.528 63.3737 62.9338 61.9264 61.9581 60.8249C62.4522 60.5476 62.9124 60.2022 63.325 59.7906C64.5022 58.6107 65.1503 57.0447 65.1503 55.3804C65.1503 51.9398 62.352 49.1407 58.9123 49.1407H52.4097V21.8345C52.4097 20.1012 53.4927 18.5294 55.1676 17.8308L57.8052 16.7325C58.5446 16.4247 58.8944 15.5759 58.5865 14.8363C58.2785 14.0969 57.4297 13.7465 56.6903 14.0549L54.0517 15.1536C51.2923 16.3046 49.5093 18.9272 49.5093 21.8345V49.1409H43.45C45.4677 42.7647 45.296 36.1102 42.9412 28.3869C42.5835 27.2173 41.872 26.2155 40.8829 25.4898C39.8997 24.7685 38.7345 24.3871 37.5131 24.3871C35.9395 24.3871 34.4764 25.0155 33.3928 26.1565C32.3098 27.2973 31.7583 28.7908 31.8399 30.3617C32.2933 39.0816 28.2711 42.0829 22.7041 46.2372C20.8712 47.6049 18.868 49.1007 16.8992 50.9351V49.0344C16.8992 48.2333 16.2501 47.5842 15.449 47.5842H1.4502C0.649107 47.5842 0 48.2333 0 49.0344V90.1639C0 90.9649 0.649107 91.6141 1.4502 91.6141H15.4494C16.2505 91.6141 16.8996 90.9649 16.8996 90.1639V86.5155C19.654 86.7775 21.6657 87.3265 23.6202 88.8245C24.9033 89.8079 26.485 90.3495 28.0738 90.3495H53.6497C54.6946 90.8588 55.853 91.1287 57.0273 91.1287H82.8098C83.6109 91.1287 84.26 90.4796 84.26 89.6785C84.26 88.8774 83.6109 88.2285 82.81 88.2285ZM25.3846 86.5223C22.6501 84.4269 19.7277 83.8447 16.8996 83.6005V66.667C16.8996 65.8659 16.2505 65.2168 15.4494 65.2168C14.6483 65.2168 13.9992 65.8659 13.9992 66.667V88.7139H2.90039V50.4848H13.9992V60.3482C13.9992 61.1493 14.6483 61.7984 15.4494 61.7984C16.2505 61.7984 16.8996 61.1493 16.8996 60.3482V55.055C19.3255 52.378 21.9231 50.4395 24.4391 48.562C30.0096 44.4054 35.2709 40.479 34.737 30.2112C34.697 29.4426 34.9667 28.7119 35.4969 28.1537C36.0271 27.5951 36.7433 27.2876 37.5137 27.2876C38.1136 27.2876 38.6854 27.4746 39.1675 27.8285C39.6487 28.1815 39.9946 28.668 40.1679 29.2344C42.5661 37.1012 42.5286 43.7199 40.0498 50.0638C39.8753 50.5101 39.9328 51.0136 40.2029 51.4094C40.473 51.8052 40.9212 52.0419 41.4004 52.0419H58.9127C60.7531 52.0419 62.2503 53.5398 62.2503 55.3812C62.2503 56.2716 61.9028 57.1102 61.2742 57.7404C60.6419 58.3711 59.8035 58.7186 58.9127 58.7186H52.9553C52.1542 58.7186 51.5051 59.3677 51.5051 60.1688C51.5051 60.9699 52.1542 61.619 52.9553 61.619H57.2905C59.1307 61.619 60.6278 63.1169 60.6278 64.9585C60.6278 65.8505 60.2809 66.6887 59.6506 67.3188C59.0206 67.949 58.1824 68.2959 57.2905 68.2959H52.9553C52.1542 68.2959 51.5051 68.945 51.5051 69.7461C51.5051 70.5472 52.1542 71.1963 52.9553 71.1963H55.6989C57.5393 71.1963 59.0365 72.6934 59.0365 74.5336C59.0365 75.4254 58.6894 76.2638 58.0594 76.894C57.4279 77.5255 56.5895 77.873 55.6989 77.873H53.7576H51.3638C50.5627 77.873 49.9136 78.5221 49.9136 79.3232C49.9136 80.1243 50.5627 80.7734 51.3638 80.7734H53.7576C55.598 80.7734 57.0952 82.2705 57.0952 84.1107C57.0952 85.0025 56.7477 85.8417 56.1193 86.4717C55.5303 87.0593 54.5998 87.4342 53.9036 87.4466C53.8554 87.4473 28.0738 87.4501 28.0738 87.4501C27.1194 87.4491 26.1642 87.12 25.3846 86.5223Z" fill="black"/>
<path d="M79.4885 22.4792C79.4885 19.4319 77.0092 16.9526 73.9619 16.9526C70.9146 16.9526 68.4353 19.4319 68.4353 22.4792C68.4353 25.5266 70.9146 28.0058 73.9619 28.0058C77.0092 28.0058 79.4885 25.5266 79.4885 22.4792ZM71.3357 22.4792C71.3357 21.0312 72.5138 19.853 73.9619 19.853C75.41 19.853 76.5881 21.0312 76.5881 22.4792C76.5881 23.9273 75.41 25.1054 73.9619 25.1054C72.5138 25.1054 71.3357 23.9275 71.3357 22.4792Z" fill="black"/>
<path d="M74.8679 71.9616H72.267C70.8971 71.9616 69.7825 70.8469 69.7825 69.4769C69.7825 68.6758 69.1334 68.0267 68.3323 68.0267C67.5313 68.0267 66.8822 68.6758 66.8822 69.4769C66.8822 72.3961 69.2172 74.7783 72.1172 74.8581V78.0675C72.1172 78.8686 72.7663 79.5177 73.5674 79.5177C74.3684 79.5177 75.0176 78.8686 75.0176 78.0675V74.8581C77.9178 74.7783 80.2528 72.3961 80.2528 69.4769V67.4693C80.2528 65.6066 79.0626 63.9687 77.2911 63.3929L70.7401 61.265C70.1673 61.0788 69.7825 60.5493 69.7825 59.9472V57.0725C69.7825 55.9599 70.6877 55.0546 71.8002 55.0546H75.3349C76.4474 55.0546 77.3526 55.9599 77.3526 57.0725C77.3526 57.8736 78.0017 58.5227 78.8028 58.5227C79.6038 58.5227 80.253 57.8736 80.253 57.0725C80.253 54.3607 78.0467 52.1542 75.3349 52.1542H75.0176V48.9487C75.0176 48.1476 74.3684 47.4985 73.5674 47.4985C72.7663 47.4985 72.1172 48.1476 72.1172 48.9487V52.1542H71.8001C69.0884 52.1542 66.882 54.3605 66.882 57.0725V59.9472C66.882 61.8098 68.0721 63.4478 69.8436 64.0234L76.3945 66.1513C76.9674 66.3375 77.3522 66.8672 77.3522 67.4693V69.4769C77.3526 70.8469 76.2378 71.9616 74.8679 71.9616Z" fill="black"/>
</g>
<defs>
<clipPath id="clip0">
<rect width="99" height="99" fill="white"/>
</clipPath>
</defs>
</svg>
