<svg width="99" height="99" viewBox="0 0 99 99" fill="none" xmlns="http://www.w3.org/2000/svg">
                            <g clip-path="url(#clip0)">
                            <path d="M35.0774 33.6147H90.7821C93.4518 33.6147 95.6161 35.779 95.6161 38.4487V80.4831C95.6161 83.1528 93.4518 85.3171 90.7821 85.3171H79.267C78.199 85.3171 77.3334 86.1828 77.3334 87.2507V96.42C77.3334 97.2812 76.2919 97.7126 75.683 97.1037L64.463 85.8836C64.1004 85.5211 63.6085 85.3173 63.0957 85.3173H35.0774C32.4077 85.3173 30.2434 83.153 30.2434 80.4833V38.4489C30.2434 35.779 32.4077 33.6147 35.0774 33.6147Z" fill="#95C7F8"/>
                            <path d="M92.7158 33.6147H86.915C89.5848 33.6147 91.749 35.779 91.749 38.4487V80.4831C91.749 83.1528 89.5848 85.3171 86.915 85.3171H92.7158C95.3855 85.3171 97.5498 83.1528 97.5498 80.4831V38.4487C97.5498 35.779 95.3855 33.6147 92.7158 33.6147Z" fill="#75B5F8"/>
                            <path d="M61.9889 1.61084H6.28418C3.61447 1.61084 1.4502 3.77511 1.4502 6.44482V48.4792C1.4502 51.1489 3.61447 53.3132 6.28418 53.3132H19.7329C20.8008 53.3132 21.6665 54.1789 21.6665 55.2468V64.4161C21.6665 65.2773 22.7079 65.7087 23.3168 65.0998L34.5369 53.8797C34.8994 53.5172 35.3913 53.3134 35.9041 53.3134H61.9887C64.6584 53.3134 66.8227 51.1491 66.8227 48.4794V6.44482C66.8229 3.77511 64.6586 1.61084 61.9889 1.61084Z" fill="#FFE187"/>
                            <path d="M63.9226 1.61084H58.1218C60.7915 1.61084 62.9558 3.77511 62.9558 6.44482V48.4792C62.9558 51.1489 60.7915 53.3132 58.1218 53.3132H63.9226C66.5923 53.3132 68.7565 51.1489 68.7565 48.4792V6.44482C68.7565 3.77511 66.5923 1.61084 63.9226 1.61084Z" fill="#FFD26F"/>
                            <path d="M9.04004 83.5817C9.04004 85.4139 10.2574 86.9619 11.9275 87.461C12.2952 87.5708 12.6849 87.4364 13.0882 87.4364C15.324 87.4364 16.943 85.8173 16.943 83.5817C16.943 81.3459 15.324 79.7269 13.0882 79.7269C12.6849 79.7269 12.2952 79.5925 11.9275 79.7023C10.2574 80.2012 9.04004 81.7492 9.04004 83.5817Z" fill="#ADE4A4"/>
                            <path d="M13.0884 79.5332C12.6848 79.5332 12.296 79.5941 11.9282 79.7039C13.5983 80.203 14.8162 81.7491 14.8162 83.5814C14.8162 85.4137 13.5981 86.9598 11.9282 87.4588C12.296 87.5686 12.6848 87.6296 13.0884 87.6296C15.3242 87.6296 17.1366 85.817 17.1366 83.5814C17.1367 81.3458 15.3242 79.5332 13.0884 79.5332Z" fill="#8BD5A7"/>
                            <path d="M81.8633 15.4181C81.8633 17.2504 83.0807 18.7985 84.7507 19.2975C85.1185 19.4073 85.5081 19.273 85.9115 19.273C88.1473 19.273 89.7663 17.6538 89.7663 15.4181C89.7663 13.1825 88.1471 11.5633 85.9115 11.5633C85.5081 11.5633 85.1185 11.4289 84.7507 11.5388C83.0807 12.0376 81.8633 13.5857 81.8633 15.4181Z" fill="#ADE4A4"/>
                            <path d="M85.9116 11.3701C85.5081 11.3701 85.1192 11.431 84.7515 11.5409C86.4215 12.0399 87.6394 13.586 87.6394 15.4183C87.6394 17.2506 86.4215 18.7967 84.7515 19.2957C85.1192 19.4056 85.5081 19.4665 85.9116 19.4665C88.1474 19.4665 89.9597 17.6539 89.9597 15.4183C89.9597 13.1827 88.1474 11.3701 85.9116 11.3701Z" fill="#8BD5A7"/>
                            <path d="M83.7746 58.0161H44.0186C43.2177 58.0161 42.5684 58.6654 42.5684 59.4663C42.5684 60.2672 43.2177 60.9165 44.0186 60.9165H83.7746C84.5755 60.9165 85.2248 60.2672 85.2248 59.4663C85.2248 58.6654 84.5755 58.0161 83.7746 58.0161Z" fill="black"/>
                            <path d="M83.7746 69.9829H44.0186C43.2177 69.9829 42.5684 70.6322 42.5684 71.4331C42.5684 72.234 43.2177 72.8833 44.0186 72.8833H83.7746C84.5755 72.8833 85.2248 72.234 85.2248 71.4331C85.2248 70.6322 84.5755 69.9829 83.7746 69.9829Z" fill="black"/>
                            <path d="M18.6465 27.4624C18.6465 26.6615 17.9972 26.0122 17.1963 26.0122C16.3954 26.0122 15.7461 26.6615 15.7461 27.4624C15.7461 28.2633 16.3954 28.9126 17.1963 28.9126C17.9972 28.9126 18.6465 28.2633 18.6465 27.4624Z" fill="black"/>
                            <path d="M36.5535 27.4624C36.5535 26.6615 35.9042 26.0122 35.1033 26.0122C34.3024 26.0122 33.6531 26.6615 33.6531 27.4624C33.6531 28.2633 34.3024 28.9126 35.1033 28.9126C35.9044 28.9126 36.5535 28.2633 36.5535 27.4624Z" fill="black"/>
                            <path d="M54.4604 27.4624C54.4604 26.6615 53.8111 26.0122 53.0103 26.0122C52.2094 26.0122 51.5601 26.6615 51.5601 27.4624C51.5601 28.2633 52.2094 28.9126 53.0103 28.9126C53.8111 28.9126 54.4604 28.2633 54.4604 27.4624Z" fill="black"/>
                            <path d="M13.0882 78.0835C10.0563 78.0835 7.58984 80.55 7.58984 83.582C7.58984 86.6139 10.0563 89.0804 13.0882 89.0804C16.1201 89.0804 18.5868 86.6139 18.5868 83.582C18.5868 80.5502 16.1203 78.0835 13.0882 78.0835ZM13.0882 86.18C11.6556 86.18 10.4902 85.0146 10.4902 83.582C10.4902 82.1494 11.6556 80.9839 13.0882 80.9839C14.5208 80.9839 15.6864 82.1494 15.6864 83.582C15.6864 85.0144 14.5208 86.18 13.0882 86.18Z" fill="black"/>
                            <path d="M85.9115 20.9172C88.9433 20.9172 91.4098 18.4507 91.4098 15.4188C91.4098 12.3869 88.9433 9.92041 85.9115 9.92041C82.8796 9.92041 80.4131 12.3869 80.4131 15.4188C80.4131 18.4505 82.8796 20.9172 85.9115 20.9172ZM85.9115 12.8206C87.3441 12.8206 88.5094 13.9862 88.5094 15.4188C88.5094 16.8514 87.3441 18.0168 85.9115 18.0168C84.4789 18.0168 83.3135 16.8514 83.3135 15.4188C83.3135 13.9862 84.4791 12.8206 85.9115 12.8206Z" fill="black"/>
                            <path d="M44.5067 83.8673H35.0775C33.2118 83.8673 31.6937 82.3493 31.6937 80.4836V58.7931C31.6937 58.7871 31.693 58.7811 31.6928 58.7751L35.5623 54.9054C35.6535 54.8141 35.775 54.7639 35.9041 54.7639H63.9223C67.229 54.7639 69.9455 52.1961 70.187 48.9499H83.7745C84.5754 48.9499 85.2247 48.3006 85.2247 47.4997C85.2247 46.6989 84.5754 46.0496 83.7745 46.0496H70.2065V35.0654H76.226C77.0269 35.0654 77.6762 34.4161 77.6762 33.6152C77.6762 32.8143 77.0269 32.165 76.226 32.165H70.2065V6.44531C70.2065 2.98031 67.3873 0.161133 63.9223 0.161133H6.28418C2.81918 0.161133 0 2.98031 0 6.44531V13.5488C0 14.3496 0.649301 14.9989 1.4502 14.9989C2.25109 14.9989 2.90039 14.3496 2.90039 13.5488V6.44531C2.90039 4.57959 4.41846 3.06152 6.28418 3.06152H63.9225C65.7882 3.06152 67.3063 4.57959 67.3063 6.44531V48.4797C67.3063 50.3454 65.7882 51.8635 63.9225 51.8635H35.9041C35.0004 51.8635 34.1506 52.2154 33.5115 52.8544L23.1165 63.2494V55.2473C23.1165 53.3815 21.5984 51.8635 19.7327 51.8635H6.28418C4.41846 51.8635 2.90039 50.3454 2.90039 48.4797V19.8689C2.90039 19.068 2.25109 18.4187 1.4502 18.4187C0.649301 18.4187 0 19.068 0 19.8689V48.4797C0 51.9447 2.81918 54.7639 6.28418 54.7639H19.7329C19.9994 54.7639 20.2163 54.9808 20.2163 55.2473V64.4166C20.2163 65.3977 20.802 66.2742 21.7083 66.6495C22.0091 66.7742 22.3239 66.8347 22.6356 66.8347C23.2633 66.8345 23.8787 66.589 24.3422 66.1255L28.7933 61.6743V80.4834C28.7933 83.9484 31.6125 86.7675 35.0775 86.7675H44.5067C45.3076 86.7675 45.9569 86.1182 45.9569 85.3173C45.9569 84.5166 45.3076 83.8673 44.5067 83.8673Z" fill="black"/>
                            <path d="M92.7159 32.165H82.5465C81.7456 32.165 81.0963 32.8143 81.0963 33.6152C81.0963 34.4161 81.7456 35.0654 82.5465 35.0654H92.7159C94.5816 35.0654 96.0996 36.5835 96.0996 38.4492V80.4837C96.0996 82.3494 94.5816 83.8674 92.7159 83.8674H79.2671C77.4014 83.8674 75.8834 85.3855 75.8834 87.2512V95.2534L65.4886 84.8586C64.8495 84.2193 63.9997 83.8674 63.0957 83.8674H50.8269C50.026 83.8674 49.3767 84.5167 49.3767 85.3176C49.3767 86.1185 50.026 86.7678 50.8269 86.7678H63.0957C63.2249 86.7678 63.3461 86.8181 63.4376 86.9094L74.6576 98.1294C75.1211 98.5931 75.7366 98.8387 76.3642 98.8387C76.6759 98.8387 76.9907 98.7782 77.2916 98.6536C78.1981 98.2783 78.7837 97.4016 78.7837 96.4205V87.2512C78.7837 86.9848 79.0005 86.7678 79.2671 86.7678H92.7159C96.1809 86.7678 99 83.9487 99 80.4837V38.4492C99 34.9842 96.1809 32.165 92.7159 32.165Z" fill="black"/>
                            </g>
                            <defs>
                            <clipPath id="clip0">
                            <rect width="99" height="99" fill="white"/>
                            </clipPath>
                            </defs>
                            </svg>