<svg width="101" height="101" viewBox="0 0 101 101" fill="none" xmlns="http://www.w3.org/2000/svg">
<g clip-path="url(#clip0)">
<path d="M78.8843 29.3464C75.3907 12.3686 58.7952 1.43751 41.8174 4.93107C27.2796 7.92267 16.8252 20.6892 16.7585 35.5312C16.7585 36.2384 16.7878 36.9624 16.8505 37.7282C6.50814 38.8229 -0.988595 48.0945 0.106158 58.4369C1.12088 68.0231 9.21099 75.2952 18.8507 75.2858H21.0477C20.9975 74.5912 20.9432 73.9007 20.9432 73.1934C20.9432 58.1711 33.1212 45.9929 48.1437 45.9929C63.1662 45.9929 75.344 58.1711 75.344 73.1934C75.344 73.9006 75.2897 74.591 75.2395 75.2858H77.4364C90.1337 75.3205 100.455 65.0554 100.49 52.358C100.523 40.1744 91.046 30.0804 78.8843 29.3464Z" fill="#BBDEFB"/>
<path d="M48.1437 96.2087C60.8549 96.2087 71.1594 85.9042 71.1594 73.193C71.1594 60.4817 60.8549 50.1772 48.1437 50.1772C35.4324 50.1772 25.1279 60.4817 25.1279 73.193C25.1279 85.9042 35.4324 96.2087 48.1437 96.2087Z" fill="#4CAF50"/>
<path d="M48.1436 87.8398C46.988 87.8398 46.0511 86.903 46.0511 85.7474V60.6393C46.0511 59.4837 46.988 58.5469 48.1436 58.5469C49.2991 58.5469 50.236 59.4837 50.236 60.6393V85.7474C50.2358 86.903 49.2991 87.8398 48.1436 87.8398Z" fill="#FAFAFA"/>
<path d="M56.5129 71.101C55.9576 71.102 55.4247 70.8823 55.0316 70.49L48.1435 63.5978L41.2554 70.49C40.4243 71.2929 39.0997 71.2697 38.2968 70.4386C37.5135 69.6277 37.5135 68.3423 38.2968 67.5314L46.6662 59.1619C47.4832 58.3451 48.8077 58.3451 49.6249 59.1619L57.9943 67.5314C58.8101 68.3497 58.8082 69.6746 57.9896 70.4904C57.5977 70.8813 57.0667 71.1008 56.5129 71.101Z" fill="#FAFAFA"/>
</g>
<defs>
<clipPath id="clip0">
<rect width="100.49" height="100.49" fill="white"/>
</clipPath>
</defs>
</svg>
