<svg width="101" height="101" viewBox="0 0 101 101" fill="none" xmlns="http://www.w3.org/2000/svg">
<g clip-path="url(#clip0)">
<path d="M49.8603 100.49C76.4174 100.49 97.9463 78.9611 97.9463 52.4039C97.9463 25.8467 76.4174 4.31787 49.8603 4.31787C23.3031 4.31787 1.77423 25.8467 1.77423 52.4039C1.77423 78.9611 23.3031 100.49 49.8603 100.49Z" fill="#5DC1D8"/>
<path d="M99.5087 37.6455H71.5244C70.9846 37.6455 70.543 38.0871 70.543 38.6269V52.4825C72.0541 53.458 73.0576 55.1555 73.0576 57.084C73.0576 58.4102 72.5834 59.6277 71.7958 60.5761H79.3522C79.8919 60.5761 80.3335 61.0177 80.3335 61.5574V67.0237C80.3335 67.5634 80.6413 67.6885 81.0175 67.3014L86.8709 61.2797C87.2471 60.8926 87.9965 60.5761 88.5362 60.5761H99.5087C100.048 60.5761 100.49 60.1345 100.49 59.5947V38.6269C100.49 38.0871 100.048 37.6455 99.5087 37.6455Z" fill="#F87EAB"/>
<path d="M74.4376 59.5947V38.6269C74.4376 38.0871 74.8792 37.6455 75.419 37.6455H71.5244C70.9846 37.6455 70.543 38.0871 70.543 38.6269V52.4825C72.0541 53.458 73.0576 55.1555 73.0576 57.084C73.0576 58.4102 72.5834 59.6277 71.7958 60.5761H75.419C74.8792 60.5761 74.4376 60.1345 74.4376 59.5947Z" fill="#E26693"/>
<path d="M85.5166 54.6731C80.9781 54.6731 76.6725 52.697 73.7035 49.2507C73.5618 49.0857 73.5618 48.8419 73.7035 48.6776C76.6725 45.2313 80.9779 43.2549 85.5166 43.2549C90.0551 43.2549 94.3605 45.2313 97.3291 48.6776C97.4714 48.8419 97.4714 49.0857 97.3291 49.2507C94.3605 52.6968 90.0551 54.6731 85.5166 54.6731Z" fill="white"/>
<path d="M76.5494 49.2507C76.4077 49.0857 76.4077 48.8419 76.5494 48.6776C79.2056 45.5944 82.9317 43.689 86.9372 43.3214C86.4669 43.278 85.9931 43.2549 85.5166 43.2549C80.9781 43.2549 76.6725 45.2313 73.7035 48.6776C73.5618 48.8419 73.5618 49.0857 73.7035 49.2507C76.6725 52.697 80.9779 54.6731 85.5166 54.6731C85.9933 54.6731 86.4669 54.6499 86.937 54.6065C82.9315 54.2389 79.2058 52.3337 76.5494 49.2507Z" fill="#D9EAFC"/>
<path d="M90.0543 48.9641C90.0543 51.4707 88.0225 53.5024 85.5166 53.5024C83.0102 53.5024 80.9782 51.4707 80.9782 48.9641C80.9782 46.4581 83.0102 44.4268 85.5166 44.4268C88.0225 44.4268 90.0543 46.4581 90.0543 48.9641Z" fill="#AEC1ED"/>
<path d="M85.5166 46.1064C83.9382 46.1064 82.6586 47.3859 82.6586 48.9639C82.6586 49.5094 82.8142 50.0173 83.0792 50.4511C83.2417 50.0697 83.6197 49.8018 84.0603 49.8018C84.6489 49.8018 85.1265 50.2797 85.1265 50.8679C85.1265 51.2087 84.9661 51.5115 84.7172 51.7066C84.9712 51.7806 85.2389 51.8222 85.5166 51.8222C87.0948 51.8222 88.3749 50.5425 88.3749 48.9639C88.3747 47.3859 87.0948 46.1064 85.5166 46.1064Z" fill="#1A2B63"/>
<path d="M85.1264 50.8679C85.1264 51.4569 84.6489 51.9344 84.0603 51.9344C83.4717 51.9344 82.9943 51.4569 82.9943 50.8679C82.9943 50.2797 83.4717 49.8018 84.0603 49.8018C84.6489 49.8018 85.1264 50.2797 85.1264 50.8679Z" fill="white"/>
<path d="M32.6237 39.1448C32.6237 34.9782 34.7446 31.298 37.963 29.1257V25.7016C37.963 25.1618 37.5214 24.7202 36.9817 24.7202H4.8757C4.33595 24.7202 3.89435 25.1618 3.89435 25.7016V46.6694C3.89435 47.2092 4.33595 47.6508 4.8757 47.6508H17.6283C18.1681 47.6508 18.9372 47.9469 19.3376 48.3091L26.0973 54.4217C26.4975 54.7838 26.8251 54.6384 26.8251 54.0986V48.6323C26.8251 48.0926 27.2667 47.651 27.8065 47.651H32.6237V39.1448Z" fill="#445EA0"/>
<path d="M20.6159 0.981348C20.6159 0.441606 21.0575 0 21.5973 0H54.1941C54.7338 0 55.1754 0.441606 55.1754 0.981348V20.3718C55.1754 20.9115 54.7338 21.3531 54.1941 21.3531H44.8583C44.3186 21.3531 43.877 21.7948 43.877 22.3345V25.7592C43.877 26.2989 43.506 26.5007 43.0528 26.2077L36.3675 21.886C35.9141 21.593 35.1018 21.3531 34.562 21.3531H21.5974C21.0577 21.3531 20.6161 20.9115 20.6161 20.3718L20.6159 0.981348Z" fill="#FE3745"/>
<path d="M24.5103 20.3718V0.981348C24.5103 0.441606 24.9519 0 25.4916 0H21.5973C21.0575 0 20.6159 0.441606 20.6159 0.981348V20.3718C20.6159 20.9115 21.0575 21.3531 21.5973 21.3531H25.4916C24.9519 21.3531 24.5103 20.9115 24.5103 20.3718Z" fill="#B7092B"/>
<path d="M28.3252 5.45444C28.5755 4.94748 28.9849 4.94748 29.2349 5.45444L30.1093 7.22538C30.3594 7.73235 31.0218 8.2138 31.5811 8.29505L33.536 8.57945C34.0957 8.6605 34.2219 9.04971 33.8172 9.44441L32.4027 10.8232C31.9978 11.2179 31.7448 11.9967 31.8404 12.5533L32.1745 14.5005C32.2702 15.0577 31.9387 15.2983 31.4384 15.0353L29.6899 14.116C29.1896 13.853 28.3709 13.853 27.8705 14.116L26.1223 15.0353C25.6218 15.2985 25.2903 15.0577 25.3861 14.5005L25.7201 12.5533C25.8153 11.9965 25.5625 11.2177 25.1578 10.8232L23.7433 9.44441C23.3384 9.04971 23.4652 8.6605 24.0246 8.57945L25.9792 8.29505C26.539 8.2138 27.2014 7.73235 27.4512 7.22538L28.3252 5.45444Z" fill="#FFAF10"/>
<path d="M50.2473 7.92646H37.113C36.3 7.92646 35.6409 7.26759 35.6409 6.45444C35.6409 5.6413 36.3 4.98242 37.113 4.98242H50.2473C51.0605 4.98242 51.7193 5.6413 51.7193 6.45444C51.7193 7.26759 51.0603 7.92646 50.2473 7.92646Z" fill="#FFAF10"/>
<path d="M50.2473 11.8459H37.113C36.3 11.8459 35.6409 11.187 35.6409 10.3739C35.6409 9.56073 36.3 8.90186 37.113 8.90186H50.2473C51.0605 8.90186 51.7193 9.56073 51.7193 10.3739C51.7193 11.187 51.0603 11.8459 50.2473 11.8459Z" fill="#FFAF10"/>
<path d="M43.706 15.7658H37.113C36.3 15.7658 35.6409 15.1069 35.6409 14.2938C35.6409 13.4807 36.3 12.8218 37.113 12.8218H43.706C44.519 12.8218 45.1781 13.4807 45.1781 14.2938C45.1781 15.1069 44.519 15.7658 43.706 15.7658Z" fill="#FFAF10"/>
<path d="M73.1473 77.9771H61.9966L62.2928 79.0485C62.416 79.4936 62.2233 80.1233 61.8718 80.4232L55.7906 85.618C55.6436 85.7436 55.4522 85.8125 55.2516 85.8125C55.0194 85.8125 54.7984 85.7197 54.6453 85.558L50.675 81.3706C50.4587 81.1427 50.1696 81.0171 49.8607 81.0171C49.5516 81.0171 49.2623 81.1427 49.0462 81.3706L45.076 85.5578C44.9225 85.7197 44.7015 85.8125 44.4695 85.8125C44.269 85.8125 44.0776 85.7434 43.9306 85.618L37.8494 80.4232C37.4984 80.1233 37.3057 79.4936 37.4284 79.0483L37.7243 77.9771H26.5737C23.6104 77.9771 21.1998 80.3878 21.1998 83.3509V91.0172C29.2037 96.9679 39.1204 100.49 49.8605 100.49C60.6005 100.49 70.5171 96.9679 78.5211 91.017V83.3507C78.5211 80.3878 76.1104 77.9771 73.1473 77.9771Z" fill="#293D7C"/>
<path d="M25.0942 83.3509C25.0942 80.3878 27.5048 77.9771 30.4681 77.9771H26.5737C23.6104 77.9771 21.1998 80.3878 21.1998 83.3509V91.0172C22.4524 91.9485 23.7521 92.8201 25.0942 93.6286V83.3509Z" fill="#1A2B63"/>
<path d="M49.8605 89.6342C49.379 89.6342 48.9054 89.4389 48.5655 89.0972C48.2238 88.7574 48.0285 88.2836 48.0285 87.8022C48.0285 87.3211 48.2238 86.8471 48.5655 86.5076C48.9052 86.1659 49.3767 85.9702 49.8605 85.9702C50.3415 85.9702 50.8153 86.1659 51.1551 86.5076C51.497 86.8471 51.6925 87.3211 51.6925 87.8022C51.6925 88.2836 51.497 88.7572 51.1551 89.0972C50.813 89.4387 50.3415 89.6342 49.8605 89.6342Z" fill="white"/>
<path d="M49.9506 89.0967C49.6087 88.757 49.4132 88.2832 49.4132 87.8017C49.4132 87.3207 49.6087 86.8467 49.9506 86.5071C50.1223 86.334 50.3286 86.1988 50.5519 86.1071C50.3335 86.018 50.0982 85.9697 49.8605 85.9697C49.3767 85.9697 48.9054 86.1654 48.5655 86.5071C48.2238 86.8467 48.0285 87.3207 48.0285 87.8017C48.0285 88.2832 48.2238 88.7568 48.5655 89.0967C48.9052 89.4384 49.379 89.6337 49.8605 89.6337C50.0982 89.6337 50.3335 89.5856 50.5519 89.4961C50.3286 89.4044 50.1219 89.2694 49.9506 89.0967Z" fill="#D9EAFC"/>
<path d="M49.8605 97.0404C49.3767 97.0404 48.9054 96.8447 48.5655 96.503C48.2238 96.1637 48.0285 95.6895 48.0285 95.2084C48.0285 94.727 48.2238 94.2534 48.5655 93.9135C48.9052 93.5718 49.3767 93.3765 49.8605 93.3765C50.3415 93.3765 50.8153 93.5718 51.1551 93.9135C51.497 94.2532 51.6925 94.727 51.6925 95.2084C51.6925 95.6895 51.497 96.1635 51.1551 96.503C50.8153 96.8447 50.3415 97.0404 49.8605 97.0404Z" fill="white"/>
<path d="M49.9506 96.5032C49.6087 96.1637 49.4132 95.6897 49.4132 95.2084C49.4132 94.7272 49.6087 94.2534 49.9506 93.9137C50.1223 93.7405 50.3286 93.6053 50.5519 93.5139C50.3335 93.4245 50.0982 93.3765 49.8605 93.3765C49.3767 93.3765 48.9054 93.5719 48.5655 93.9137C48.2238 94.2532 48.0285 94.7272 48.0285 95.2084C48.0285 95.6897 48.2238 96.1635 48.5655 96.5032C48.9052 96.8449 49.379 97.0404 49.8605 97.0404C50.0982 97.0404 50.3335 96.9921 50.5519 96.9026C50.3286 96.811 50.1219 96.676 49.9506 96.5032Z" fill="#D9EAFC"/>
<path d="M60.704 72.5635C57.7438 74.9772 53.969 76.4278 49.8605 76.4278C45.7518 76.4278 41.9771 74.977 39.0168 72.5635L37.239 78.9964C37.0959 79.5146 37.3133 80.2237 37.7216 80.5727L43.8028 85.7675C44.2118 86.1167 44.8483 86.0833 45.2181 85.6931L49.1882 81.5059C49.558 81.1161 50.1629 81.1161 50.5325 81.5059L54.5028 85.6931C54.8724 86.0833 55.5091 86.1167 55.9181 85.7675L61.9993 80.5727C62.408 80.2237 62.6252 79.5144 62.482 78.9964L60.704 72.5635Z" fill="white"/>
<path d="M41.6162 80.5726C41.2079 80.2237 40.9905 79.5144 41.1335 78.9964L42.3261 74.6808C41.141 74.0999 40.0303 73.3898 39.0168 72.5635L37.239 78.9964C37.0959 79.5146 37.3133 80.2237 37.7216 80.5726L43.8028 85.7675C44.2118 86.1167 44.8483 86.0833 45.2181 85.6931L46.2886 84.5642L41.6162 80.5726Z" fill="#D9EAFC"/>
<path d="M57.721 30.8442C56.4187 30.8442 55.1779 31.1053 54.0462 31.5761C55.0203 32.7759 55.7671 34.1665 56.224 35.6817C62.7048 36.8768 67.2936 40.2993 67.2936 47.6818V40.4169C67.2936 35.13 63.0079 30.8442 57.721 30.8442Z" fill="#FF9518"/>
<path d="M49.8605 35.1608C52.2085 35.1608 54.4473 35.3336 56.4917 35.7334C55.0132 30.6146 50.2982 26.8696 44.7031 26.8696C37.9234 26.8696 32.4275 32.3652 32.4275 39.1449V47.682C32.4275 38.0542 40.2323 35.1608 49.8605 35.1608Z" fill="#FFAF10"/>
<path d="M35.8922 39.0236C35.9519 32.8847 40.5163 27.826 46.4397 26.9927C45.8723 26.912 45.2927 26.8696 44.7031 26.8696C37.9234 26.8696 32.4275 32.3652 32.4275 39.1449V47.682C32.4275 43.77 33.7162 40.9696 35.8922 39.0236Z" fill="#FF9518"/>
<path d="M32.6716 59.2385V51.4131H32.1384C29.0061 51.4131 26.4672 53.952 26.4672 57.0839C26.4672 60.216 29.0061 62.7551 32.1384 62.7551H33.0343C32.7974 61.6197 32.6716 60.4436 32.6716 59.2385Z" fill="#FFDD8D"/>
<path d="M28.5443 57.0841C28.5443 54.4875 30.2903 52.3 32.6716 51.6272V51.4131H32.1384C29.0061 51.4131 26.4672 53.952 26.4672 57.0839C26.4672 60.216 29.0061 62.7551 32.1384 62.7551H33.0343C33.0255 62.7123 33.0196 62.6686 33.011 62.6258C30.4579 62.0735 28.5443 59.8026 28.5443 57.0841Z" fill="#FF9F60"/>
<path d="M67.5826 51.4131H67.0494V59.2385C67.0494 60.4436 66.9232 61.6197 66.6863 62.7551H67.5824C70.7143 62.7551 73.2537 60.216 73.2537 57.0839C73.2537 53.9522 70.7145 51.4131 67.5826 51.4131Z" fill="#FFC987"/>
<path d="M67.2936 59.2384C67.2936 68.8668 59.4883 76.6716 49.8605 76.6716C40.2323 76.6716 32.4275 68.8666 32.4275 59.2384V47.4856C32.4275 37.8576 40.2325 34.9644 49.8605 34.9644C59.4885 34.9644 67.2936 37.8576 67.2936 47.4856V59.2384Z" fill="#FFE2B8"/>
<path d="M35.8893 59.2384V47.4856C35.8893 38.4419 42.7758 35.3408 51.5912 34.9975C51.022 34.9755 50.4446 34.9644 49.8605 34.9644C40.2323 34.9644 32.4275 37.8576 32.4275 47.4856V59.2384C32.4275 68.8668 40.2325 76.6716 49.8605 76.6716C50.4448 76.6716 51.022 76.6418 51.5912 76.5855C42.7758 75.7166 35.8893 68.2823 35.8893 59.2384Z" fill="#FFC987"/>
<path d="M41.5555 55.7598C40.5438 55.7598 39.7235 54.9398 39.7235 53.9278V50.7524C39.7235 49.7406 40.5438 48.9204 41.5555 48.9204C42.5675 48.9204 43.3875 49.7406 43.3875 50.7524V53.9278C43.3873 54.9398 42.5675 55.7598 41.5555 55.7598Z" fill="#A53535"/>
<path d="M58.1655 55.7598C57.1535 55.7598 56.3335 54.9398 56.3335 53.9278V50.7524C56.3335 49.7406 57.1535 48.9204 58.1655 48.9204C59.177 48.9204 59.9975 49.7406 59.9975 50.7524V53.9278C59.9976 54.9398 59.1772 55.7598 58.1655 55.7598Z" fill="#A53535"/>
<path d="M51.4483 59.7089H49.2499C47.7007 59.7089 46.4407 58.4488 46.4407 56.8997V51.6889C46.4407 50.6771 47.2609 49.8569 48.2727 49.8569C49.2846 49.8569 50.1046 50.6771 50.1046 51.6889V56.0445H51.4483C52.4599 56.0445 53.2803 56.8649 53.2803 57.8765C53.2803 58.8887 52.4599 59.7089 51.4483 59.7089Z" fill="#A53535"/>
<path d="M54.8707 62.8779H44.8498C44.0027 62.8779 43.3161 63.5645 43.3161 64.4118C43.3161 68.0204 46.2519 70.9562 49.8605 70.9562C53.4689 70.9562 56.4049 68.0204 56.4049 64.4118C56.4049 63.5645 55.7184 62.8779 54.8707 62.8779Z" fill="white"/>
<path d="M100.49 8.63564C100.49 8.0959 100.048 7.6543 99.5087 7.6543H62.5939C62.0542 7.6543 61.6125 8.0959 61.6125 8.63564V28.8161C61.6125 29.3558 62.0542 29.7974 62.5939 29.7974H73.3414C73.8812 29.7974 74.3228 30.239 74.3228 30.7788V34.4029C74.3228 34.9426 74.7022 35.1583 75.1657 34.8818L82.8548 30.2997C83.3184 30.0233 84.1394 29.7972 84.6791 29.7972H99.5087C100.048 29.7972 100.49 29.3556 100.49 28.8159V8.63564Z" fill="#FF9518"/>
<path d="M3.89438 46.6694V25.7016C3.89438 25.1618 4.33599 24.7202 4.87573 24.7202H0.981348C0.441606 24.7202 0 25.1618 0 25.7016V46.6694C0 47.2092 0.441606 47.6508 0.981348 47.6508H4.87573C4.33599 47.6508 3.89438 47.2092 3.89438 46.6694Z" fill="#293D7C"/>
<path d="M65.5071 28.8161V8.63564C65.5071 8.0959 65.9487 7.6543 66.4885 7.6543H62.5939C62.0542 7.6543 61.6125 8.0959 61.6125 8.63564V28.8161C61.6125 29.3558 62.0542 29.7974 62.5939 29.7974H66.4885C65.9487 29.7974 65.5071 29.3558 65.5071 28.8161Z" fill="#EF8318"/>
<path d="M69.8855 13.4069C70.1238 12.9243 70.5135 12.9243 70.7514 13.4069L71.5838 15.0928C71.8219 15.5755 72.4525 16.0338 72.985 16.1111L74.8456 16.3818C75.3785 16.4591 75.4988 16.8294 75.1133 17.2051L73.7669 18.5178C73.3814 18.8934 73.1406 19.6347 73.2315 20.1648L73.5494 22.0184C73.6407 22.5487 73.3249 22.778 72.8488 22.5275L71.1844 21.6524C70.708 21.4021 69.9289 21.4021 69.4523 21.6524L67.7881 22.5275C67.3118 22.778 66.9962 22.5487 67.0875 22.0184L67.4054 20.1648C67.4961 19.6349 67.2555 18.8934 66.8702 18.5178L65.5238 17.2051C65.1383 16.8294 65.259 16.4589 65.7913 16.3818L67.6519 16.1111C68.1848 16.0336 68.8154 15.5755 69.0533 15.0928L69.8855 13.4069Z" fill="white"/>
<path d="M81.6564 13.4069C81.8947 12.9243 82.2843 12.9243 82.5223 13.4069L83.3545 15.0928C83.5928 15.5755 84.2234 16.0338 84.7557 16.1111L86.6167 16.3818C87.1496 16.4591 87.2697 16.8294 86.8844 17.2051L85.5378 18.5178C85.1525 18.8934 84.9117 19.6347 85.0024 20.1648L85.3205 22.0184C85.4118 22.5487 85.0962 22.778 84.6199 22.5275L82.9555 21.6524C82.4791 21.4021 81.7 21.4021 81.2234 21.6524L79.5592 22.5275C79.0827 22.778 78.7673 22.5487 78.8586 22.0184L79.1765 20.1648C79.2672 19.6349 79.0264 18.8934 78.6411 18.5178L77.2947 17.2051C76.9092 16.8294 77.0297 16.4589 77.5622 16.3818L79.4228 16.1111C79.9557 16.0336 80.5861 15.5755 80.8242 15.0928L81.6564 13.4069Z" fill="white"/>
<path d="M93.427 13.4069C93.6655 12.9243 94.055 12.9243 94.2929 13.4069L95.1253 15.0928C95.3634 15.5755 95.994 16.0338 96.5265 16.1111L98.3873 16.3818C98.9202 16.4591 99.0403 16.8294 98.6548 17.2051L97.3084 18.5178C96.9229 18.8934 96.6823 19.6347 96.773 20.1648L97.0909 22.0184C97.1822 22.5487 96.8666 22.778 96.3905 22.5275L94.7257 21.6524C94.2496 21.4021 93.4704 21.4021 92.9936 21.6524L91.3295 22.5275C90.8529 22.778 90.5373 22.5487 90.6286 22.0184L90.9467 20.1648C91.0374 19.6349 90.7966 18.8934 90.4113 18.5178L89.0647 17.2051C88.6794 16.8294 88.7999 16.4589 89.3324 16.3818L91.193 16.1111C91.7257 16.0336 92.3563 15.5755 92.5944 15.0928L93.427 13.4069Z" fill="white"/>
<path d="M26.6473 32.4245H7.32755C6.5146 32.4245 5.85553 31.7656 5.85553 30.9525C5.85553 30.1393 6.5146 29.4805 7.32755 29.4805H26.6473C27.4603 29.4805 28.1194 30.1393 28.1194 30.9525C28.1194 31.7656 27.4605 32.4245 26.6473 32.4245Z" fill="#91E0E8"/>
<path d="M26.6473 37.2629H7.32755C6.5146 37.2629 5.85553 36.604 5.85553 35.7909C5.85553 34.9777 6.5146 34.3188 7.32755 34.3188H26.6473C27.4603 34.3188 28.1194 34.9777 28.1194 35.7909C28.1194 36.604 27.4605 37.2629 26.6473 37.2629Z" fill="#91E0E8"/>
<path d="M17.0254 42.1008H7.32755C6.5146 42.1008 5.85553 41.4419 5.85553 40.6288C5.85553 39.8156 6.5146 39.1567 7.32755 39.1567H17.0254C17.8384 39.1567 18.4974 39.8156 18.4974 40.6288C18.4974 41.4419 17.8384 42.1008 17.0254 42.1008Z" fill="#91E0E8"/>
</g>
<defs>
<clipPath id="clip0">
<rect width="100.49" height="100.49" fill="white"/>
</clipPath>
</defs>
</svg>
