<svg width="101" height="101" viewBox="0 0 101 101" fill="none" xmlns="http://www.w3.org/2000/svg">
<g clip-path="url(#clip0)">
<path d="M94.4217 28.6764L76.2851 10.5054V83.3223H100.557V43.4304C100.557 37.8914 98.3484 32.5812 94.4217 28.6764Z" fill="#FFB782"/>
<path d="M14.176 70.054L0.465128 34.4603C-0.911005 30.8873 0.86921 26.8736 4.44424 25.4968L69.1597 0.569193C72.7327 -0.80694 76.7463 0.973275 78.1224 4.5483L91.8333 40.142C93.2095 43.715 91.4293 47.7286 87.8542 49.1054L23.1408 74.0331C19.5658 75.4092 15.5542 73.627 14.176 70.054Z" fill="#DE4C3C"/>
<path d="M83.0636 17.3706L5.46869 47.4478L10.6355 60.8602L88.2337 30.7969L83.0636 17.3706Z" fill="#7A4930"/>
<path d="M0.000671387 45.1799V7.03761C0.000671387 3.2078 3.10593 0.102539 6.93575 0.102539H76.2852C80.115 0.102539 83.2202 3.2078 83.2202 7.03761V45.1799C83.2202 49.0097 80.115 52.1149 76.2852 52.1149H6.93575C3.10593 52.1149 0.000671387 49.0097 0.000671387 45.1799Z" fill="#4398D1"/>
<path d="M76.2851 0.102539H68.9168L16.9044 52.1149H76.2851C80.115 52.1149 83.2202 49.0097 83.2202 45.1799V7.03761C83.2202 3.2078 80.115 0.102539 76.2851 0.102539Z" fill="#3E8CC7"/>
<path d="M6.93567 27.8418H13.8707V31.3093H6.93567V27.8418Z" fill="#5EB3D1"/>
<path d="M6.93567 38.2451H13.8707V41.7127H6.93567V38.2451Z" fill="#5EB3D1"/>
<path d="M38.1429 38.2451H45.078V41.7127H38.1429V38.2451Z" fill="#5EB3D1"/>
<path d="M17.3384 27.8418H24.2728V31.3093H17.3384V27.8418Z" fill="#5EB3D1"/>
<path d="M27.7403 27.8418H34.6754V31.3093H27.7403V27.8418Z" fill="#5EB3D1"/>
<path d="M38.1429 27.8418H45.078V31.3093H38.1429V27.8418Z" fill="#5EB3D1"/>
<path d="M71.0839 7.0376H74.5514V12.2389H71.0839V7.0376Z" fill="#5EB3D1"/>
<path d="M64.1487 7.0376H67.6162V12.2389H64.1487V7.0376Z" fill="#5EB3D1"/>
<path d="M57.2138 7.0376H60.6813V12.2389H57.2138V7.0376Z" fill="#5EB3D1"/>
<path d="M50.2793 7.0376H53.7462V12.2389H50.2793V7.0376Z" fill="#5EB3D1"/>
<path d="M69.3502 83.3223H100.557V100.659H69.3502V83.3223Z" fill="#88B337"/>
<path d="M64.2617 31.4224C61.3209 28.4923 56.5622 28.5009 53.6321 31.4416C50.7989 34.2848 50.7007 38.8531 53.4085 41.8164L67.6164 57.3161C63.346 64.79 63.5285 74.0062 68.0895 81.3056L69.3502 83.322H91.8885V59.0499L64.2617 31.4224Z" fill="#FFB782"/>
<path d="M74.5515 88.5234H78.0191V91.991H74.5515V88.5234Z" fill="#6B962A"/>
<path d="M6.93567 18.1336V9.81176C6.93567 8.27904 8.17711 7.0376 9.70983 7.0376H18.0317C19.5644 7.0376 20.8052 8.27904 20.8052 9.81176V18.1336C20.8052 19.6663 19.5644 20.9077 18.0317 20.9077H9.70983C8.17711 20.9077 6.93567 19.6663 6.93567 18.1336Z" fill="#FDB62F"/>
<path d="M6.93567 12.2388H12.137V15.7063H6.93567V12.2388Z" fill="#FD7B2F"/>
<path d="M15.6046 12.2388H20.8052V15.7063H15.6046V12.2388Z" fill="#FD7B2F"/>
<path d="M90.1546 59.0502C89.6954 59.0502 89.2535 58.8677 88.9291 58.5419L81.994 51.6068C81.3285 50.9188 81.3477 49.8213 82.0378 49.1551C82.7106 48.5069 83.7749 48.5069 84.4457 49.1551L91.3808 56.0902C92.0569 56.7683 92.0569 57.8658 91.3808 58.5419C91.0543 58.8677 90.6144 59.0502 90.1546 59.0502Z" fill="#F2A46F"/>
</g>
<defs>
<clipPath id="clip0">
<rect width="100.49" height="100.49" fill="white"/>
</clipPath>
</defs>
</svg>
