<svg width="108" height="108" viewBox="0 0 108 108" fill="none" xmlns="http://www.w3.org/2000/svg">
<path d="M73.9737 94.2363H3.75681L7.60009 25.418H32.5371L35.7012 27.0928L38.8652 25.418H69.833L73.9737 94.2363Z" fill="#FF3D58"/>
<path d="M73.9737 94.2363H38.8652V25.418H69.833L73.9737 94.2363Z" fill="#D20173"/>
<path d="M76.7159 108C91.9188 108 104.243 95.6756 104.243 80.4727C104.243 65.2697 91.9188 52.9453 76.7159 52.9453C61.5129 52.9453 49.1885 65.2697 49.1885 80.4727C49.1885 95.6756 61.5129 108 76.7159 108Z" fill="#97CBFF"/>
<path d="M104.243 80.4727C104.243 95.6749 91.9181 108 76.7159 108V52.9453C91.9181 52.9453 104.243 65.2704 104.243 80.4727Z" fill="#7F7CFF"/>
<path d="M90.4627 74.6148L76.7159 88.3616L74.2711 90.8064L62.9691 79.5043L67.4451 75.0303L74.2711 81.8563L76.7159 79.4115L85.9866 70.1387L90.4627 74.6148Z" fill="#F1F1F1"/>
<path d="M90.4626 74.6148L76.7158 88.3616V79.4115L85.9865 70.1387L90.4626 74.6148Z" fill="#D6D6EA"/>
<path d="M57.7779 18.9127V41.291H51.4498V18.9127C51.4498 11.9728 45.8051 6.32812 38.8653 6.32812C31.9254 6.32812 26.2807 11.9728 26.2807 18.9127V41.291H19.9526V18.9127C19.9526 8.48391 28.4365 0 38.8653 0C49.294 0 57.7779 8.48391 57.7779 18.9127Z" fill="#4E588B"/>
<path d="M57.7779 18.9127V41.291H51.4498V18.9127C51.4498 11.9728 45.8051 6.32812 38.8652 6.32812V0C49.294 0 57.7779 8.48391 57.7779 18.9127Z" fill="#293E65"/>
<path d="M32.5378 25.418H38.8659V41.291H32.5378V25.418Z" fill="#4E588B"/>
<path d="M42.584 43.7505V59.8282H28.8204V43.7505L35.7012 39.1816L35.7033 39.1837L42.584 43.7505Z" fill="#FFEE00"/>
<path d="M42.5841 43.7504V59.8281H35.7033V39.1836L42.5841 43.7504Z" fill="#FFCC00"/>
</svg>
