<svg width="99" height="99" viewBox="0 0 99 99" fill="none" xmlns="http://www.w3.org/2000/svg">
<g clip-path="url(#clip0)">
<path d="M42.8866 26.9789C42.3217 26.0355 41.2715 25.4939 40.175 25.5773L16.6056 27.3979C14.2194 27.5824 12.0938 28.833 10.7736 30.8296L0.882351 45.7901C-0.118662 47.3043 -0.277989 49.199 0.456384 50.8588C1.19056 52.5186 2.69972 53.675 4.49312 53.9529L23.6046 56.913C23.7533 56.936 23.9018 56.9474 24.0491 56.9474C25.0281 56.9472 25.9543 56.4509 26.4924 55.609L42.8422 30.0311C43.4344 29.1043 43.4514 27.9225 42.8866 26.9789Z" fill="#E45A6E"/>
<path d="M72.021 56.1132C71.0774 55.5482 69.8954 55.5654 68.9688 56.1577L43.391 72.5074C42.4225 73.1266 41.9111 74.2593 42.0868 75.3952L45.0467 94.5067C45.3246 96.3003 46.4813 97.8093 48.1413 98.5437C48.8315 98.849 49.5624 98.9996 50.2898 98.9996C51.311 98.9996 52.3255 98.7022 53.2097 98.1177L68.1704 88.2263C70.167 86.9064 71.4179 84.7806 71.602 82.3942L73.4226 58.8251C73.5075 57.7285 72.9645 56.6784 72.021 56.1132Z" fill="#D82E44"/>
<path d="M37.2931 79.7172C38.4474 80.8716 40.0877 81.4116 41.6977 81.1423C65.3091 77.1943 83.993 57.6451 91.1061 43.8929C99.0046 28.6226 99.2971 12.4858 98.8843 4.91772C98.7428 2.32441 96.6756 0.257219 94.0823 0.115681C86.5142 -0.296944 70.3775 -0.00439389 55.1071 7.89408C41.3551 15.0071 21.8059 33.6911 17.8579 57.3024C17.5887 58.9125 18.1286 60.5528 19.2829 61.7071L37.2931 79.7172Z" fill="#F1F1FB"/>
<path d="M97.4026 1.59766L28.2878 70.7125L37.2929 79.7175C38.4472 80.8719 40.0875 81.4117 41.6976 81.1426C65.3089 77.1946 83.9929 57.6453 91.1059 43.8933C99.0044 28.6231 99.297 12.4862 98.8841 4.91819C98.8134 3.62153 98.2612 2.45636 97.4026 1.59766Z" fill="#D7D6FB"/>
<path d="M67.8166 45.6781C64.1024 45.6783 60.3897 44.2649 57.5623 41.4374C54.8232 38.6985 53.3146 35.0566 53.3146 31.183C53.3146 27.3095 54.8232 23.6676 57.5623 20.9287C63.2162 15.2745 72.4164 15.2743 78.0708 20.9287C80.8099 23.6676 82.3182 27.3095 82.3182 31.183C82.3182 35.0566 80.8099 38.6985 78.0708 41.4374C75.2441 44.2643 71.5296 45.6777 67.8166 45.6781ZM59.613 22.9796H59.6149H59.613Z" fill="#466288"/>
<path d="M17.8578 57.3024C17.5886 58.9125 18.1285 60.5527 19.2828 61.7071L37.2929 79.7172C38.4473 80.8715 40.0875 81.4114 41.6976 81.1422C46.8353 80.2831 51.7393 78.6848 56.342 76.5689L22.4311 42.6582C20.3151 47.2607 18.7168 52.1648 17.8578 57.3024Z" fill="#466288"/>
<path d="M2.95925 81.5852C3.70137 81.5852 4.44387 81.3019 5.01002 80.7356L14.4794 71.2662C15.6121 70.1337 15.6121 68.2972 14.4794 67.1645C13.3469 66.0318 11.5106 66.0318 10.3777 67.1645L0.908484 76.6339C-0.224215 77.7664 -0.224215 79.6029 0.908484 80.7356C1.47483 81.3021 2.21695 81.5852 2.95925 81.5852Z" fill="#FDB43A"/>
<path d="M23.1575 75.8425C22.025 74.71 20.1885 74.71 19.0558 75.8425L0.850257 94.0481C-0.282442 95.1806 -0.282442 97.0171 0.850257 98.1498C1.41661 98.7162 2.15891 98.9993 2.90122 98.9993C3.64353 98.9993 4.38583 98.716 4.95199 98.1496L23.1575 79.9441C24.2902 78.8116 24.2902 76.975 23.1575 75.8425Z" fill="#FDB43A"/>
<path d="M31.8354 84.5208C30.7029 83.3883 28.8663 83.3883 27.7336 84.5208L18.2644 93.99C17.1317 95.1225 17.1317 96.959 18.2644 98.0917C18.8308 98.658 19.5731 98.9413 20.3152 98.9413C21.0573 98.9413 21.7998 98.658 22.366 98.0917L31.8354 88.6223C32.9681 87.4898 32.9681 85.6533 31.8354 84.5208Z" fill="#F57A21"/>
<path d="M0.85022 98.1503C1.41657 98.7166 2.15888 98.9997 2.90118 98.9997C3.64349 98.9997 4.3858 98.7164 4.95195 98.1501L23.1575 79.9445C24.2902 78.812 24.2902 76.9755 23.1575 75.8428L0.85022 98.1503Z" fill="#F57A21"/>
<path d="M28.2878 70.7118L37.2929 79.7169C38.4472 80.8712 40.0875 81.4111 41.6976 81.1419C46.8353 80.2828 51.7392 78.6845 56.3419 76.5686L39.3866 59.6133L28.2878 70.7118Z" fill="#354A67"/>
<path d="M57.5621 41.4381C60.3896 44.2655 64.1023 45.6792 67.8166 45.6788C71.5296 45.6784 75.2441 44.2648 78.0708 41.4381C80.8099 38.6989 82.3183 35.0572 82.3183 31.1836C82.3183 27.3101 80.8099 23.6681 78.0708 20.9292L57.5621 41.4381Z" fill="#354A67"/>
<path d="M67.8165 22.4868C65.5884 22.4868 63.3602 23.3349 61.664 25.0312C60.0207 26.6746 59.1154 28.8596 59.1154 31.1837C59.1154 33.5079 60.0207 35.6929 61.664 37.3362C65.0565 40.7287 70.5769 40.7289 73.9694 37.3362C75.6128 35.6927 76.5179 33.5077 76.5179 31.1835C76.5179 28.8594 75.6128 26.6744 73.9694 25.031C72.2731 23.3349 70.045 22.4868 67.8165 22.4868Z" fill="#4BBEFD"/>
<path d="M73.9691 25.0308L61.6639 37.336C65.0564 40.7285 70.5768 40.7286 73.9691 37.336C75.6125 35.6924 76.5176 33.5074 76.5176 31.1833C76.5176 28.8591 75.6127 26.6741 73.9691 25.0308Z" fill="#0590FB"/>
</g>
<defs>
<clipPath id="clip0">
<rect width="99" height="99" fill="white"/>
</clipPath>
</defs>
</svg>
