<svg width="101" height="101" viewBox="0 0 101 101" fill="none" xmlns="http://www.w3.org/2000/svg">
<g clip-path="url(#clip0)">
<path d="M47.8084 0.0581145C21.2691 1.32176 0.325849 23.4239 0.406359 49.9932C0.430873 58.0856 2.38451 65.7237 5.83083 72.4726L0.539502 98.1573C0.25327 99.5467 1.50635 100.763 2.88656 100.436L28.0545 94.4736C34.5206 97.6945 41.7833 99.5548 49.4698 99.6721C76.5955 100.086 99.2136 78.5479 100.059 51.4323C100.965 22.3662 76.9762 -1.33099 47.8084 0.0581145ZM77.8392 77.4333C70.4685 84.8039 60.6686 88.8631 50.2451 88.8631C44.1417 88.8631 38.2983 87.4937 32.8767 84.7931L29.3718 83.0471L13.9412 86.703L17.1893 70.9357L15.4625 67.5543C12.648 62.0424 11.2209 56.082 11.2209 49.8389C11.2209 39.4151 15.2801 29.6155 22.6507 22.2446C29.9555 14.9398 39.9153 10.8145 50.2458 10.8145C60.6694 10.8148 70.4688 14.8739 77.8394 22.2443C85.2101 29.615 89.2692 39.4146 89.2695 49.8382C89.2692 60.169 85.144 70.1287 77.8392 77.4333Z" fill="#7AD06D"/>
<path d="M74.4328 60.6472L64.779 57.8753C63.5099 57.511 62.1431 57.871 61.2183 58.8133L58.8576 61.2185C57.8621 62.2327 56.3517 62.5586 55.0342 62.0255C50.4674 60.1774 40.861 51.6361 38.4077 47.3638C37.7 46.1314 37.817 44.5906 38.686 43.4661L40.7471 40.7997C41.5546 39.755 41.725 38.3519 41.191 37.1443L37.1294 27.9582C36.1566 25.758 33.345 25.1175 31.5081 26.671C28.8138 28.9498 25.6169 32.4127 25.2283 36.249C24.5431 43.0129 27.4439 51.5393 38.4133 61.7773C51.0858 73.6051 61.2339 75.1677 67.8413 73.5671C71.589 72.6594 74.584 69.0203 76.4742 66.0407C77.7628 64.0092 76.7453 61.3113 74.4328 60.6472Z" fill="#7AD06D"/>
</g>
<defs>
<clipPath id="clip0">
<rect width="100.49" height="100.49" fill="white"/>
</clipPath>
</defs>
</svg>
