<svg width="101" height="101" viewBox="0 0 101 101" fill="none" xmlns="http://www.w3.org/2000/svg">
<g clip-path="url(#clip0)">
<path d="M94.5825 66.6135C82.4527 92.05 63.7876 97.5458 50.245 97.5458C34.9947 97.5458 20.6278 89.9305 11.7956 77.5066C2.90502 64.965 0.784913 49.0672 5.90755 33.8757L6.84984 31.9329C14.0331 14.7983 31.462 2.94385 50.245 2.94385C65.4954 2.94385 79.8623 10.5591 88.6944 22.983C97.5851 35.5246 99.7052 51.4224 94.5825 66.6135Z" fill="#65B1FC"/>
<path d="M94.5825 66.6135C82.4526 92.05 63.7876 97.5458 50.245 97.5458V2.94385C65.4953 2.94385 79.8623 10.5591 88.6944 22.983C97.585 35.5246 99.7051 51.4224 94.5825 66.6135Z" fill="#1689FC"/>
<path d="M91.1083 21.2754C81.6876 8.08611 66.4373 0 50.245 0C30.0489 0 11.5603 12.679 3.96468 31.344L2.96351 33.4051C-2.44274 49.8674 -0.337745 65.4604 9.38172 79.2142C18.8025 92.4035 34.0528 100.49 50.245 100.49C70.2056 100.49 88.4587 88.1054 96.2899 69.8521L97.1729 68.0857C103.058 51.3402 100.997 35.2535 91.1083 21.2754ZM14.2099 75.7991C5.84906 64.0229 3.9058 49.1263 8.73403 34.8182L9.49948 33.2282C14.2688 21.8053 23.7486 12.9538 35.0536 8.71417C27.9292 18.0175 23.6307 36.1134 24.1608 42.0015C24.1019 42.1783 24.0429 42.3548 24.0429 42.5905C22.512 62.3154 26.9869 81.3537 35.4069 92.0112C26.9871 88.9492 19.5094 83.2772 14.2099 75.7991ZM47.301 94.0718C45.2404 93.3652 43.1793 91.8149 41.2361 89.7539C32.9929 80.863 28.4591 62.0801 29.9311 43.0613V42.5316C29.9311 42.3548 29.99 42.1194 29.99 41.9426C31.6974 23.6307 38.881 9.18541 47.301 6.41782V94.0718ZM53.1891 94.0129V6.41782C62.2565 9.42074 69.8525 26.1037 70.7354 46.0054C71.5597 64.3762 66.9672 81.6283 59.0181 89.9896C57.1339 91.9324 55.1912 93.3652 53.1891 94.0129ZM91.756 65.6718C85.1614 79.5677 75.8582 88.1248 65.0832 91.9523C72.973 82.0014 77.448 64.2586 76.6235 45.7701C75.9169 30.1075 71.5008 16.6046 65.083 8.47884C73.503 11.5405 80.9806 17.2128 86.2799 24.6905C94.641 36.4667 96.5843 51.3637 91.756 65.6718Z" fill="#96EBE6"/>
<path d="M91.1083 21.2754C81.6876 8.08611 66.4372 0 50.245 0V100.49C70.2056 100.49 88.4587 88.1054 96.2898 69.8521L97.1728 68.0857C103.058 51.3402 100.997 35.2535 91.1083 21.2754ZM53.189 94.0129V6.41782C62.2565 9.42074 69.8525 26.1037 70.7353 46.0054C71.5597 64.3762 66.9672 81.6283 59.018 89.9896C57.1339 91.9324 55.1912 93.3652 53.189 94.0129ZM91.756 65.6718C85.1613 79.5677 75.8582 88.1248 65.0832 91.9523C72.973 82.0014 77.448 64.2586 76.6234 45.7701C75.9169 30.1075 71.5008 16.6046 65.083 8.47884C73.5029 11.5405 80.9806 17.2128 86.2799 24.6905C94.641 36.4667 96.5842 51.3637 91.756 65.6718Z" fill="#00C8C8"/>
<path d="M91.4616 29.6367H9.0284C4.14109 29.6367 0 33.5815 0 38.4688V62.0212C0 66.9081 4.14109 70.8533 9.0284 70.8533H91.4616C96.3489 70.8533 100.49 66.9081 100.49 62.0212V38.4688C100.49 33.5815 96.3489 29.6367 91.4616 29.6367Z" fill="#0053BF"/>
<path d="M100.49 38.4688V62.0212C100.49 66.9081 96.3489 70.8533 91.4616 70.8533H50.245V29.6367H91.4616C96.3489 29.6367 100.49 33.5815 100.49 38.4688Z" fill="#05377F"/>
<path d="M64.6709 45.6521L58.7828 57.4282C58.2529 58.4294 57.2519 59.0771 56.1332 59.0771C55.0144 59.0771 54.0135 58.4294 53.4835 57.4282L50.2451 50.9515L47.0066 57.4282C46.0059 59.4304 42.7081 59.4304 41.7072 57.4282L35.8191 45.6521C35.1125 44.2389 35.7015 42.4727 37.1735 41.7072C38.5867 41.0007 40.3529 41.5893 41.1184 43.0613L44.357 49.5384L47.5955 43.0613C48.1256 42.0605 49.1854 41.5304 50.2451 41.5304C51.3047 41.5304 52.3648 42.0605 52.8947 43.0613L56.1332 49.5384L59.3716 43.0613C60.1371 41.5893 61.9035 41.0007 63.3164 41.7072C64.7885 42.4727 65.3775 44.2389 64.6709 45.6521Z" fill="#E1F1FA"/>
<path d="M85.5735 59.0771C84.4579 59.0771 83.4402 58.4475 82.9399 57.4499L79.6854 50.9408L76.4308 57.4499C75.4303 59.4451 72.1643 59.4451 71.1637 57.4499L65.523 46.1654C65.1579 45.7169 64.922 45.162 64.8817 44.5524C64.7783 42.9308 65.9196 41.5365 67.541 41.4302C68.7716 41.4015 70.0136 41.9823 70.5426 43.0402L73.7973 49.5492L77.0518 43.0402C78.0524 41.0449 81.3183 41.0449 82.3189 43.0402L85.5735 49.5492L88.828 43.0402C89.5583 41.5825 91.3263 41.0046 92.7783 41.7234C94.2331 42.4508 94.8225 44.219 94.0951 45.6737L88.207 57.4499C87.7067 58.4475 86.6891 59.0771 85.5735 59.0771Z" fill="#BFE1FF"/>
<path d="M32.7705 41.4186C31.612 41.407 30.4763 41.9821 29.9472 43.0402L26.6927 49.5492L23.4381 43.0402C22.3777 40.9265 19.2199 40.9424 18.171 43.0402L14.9165 49.5492L11.6619 43.0402C10.9316 41.5825 9.16069 41.0046 7.71163 41.7234C6.25688 42.4508 5.66748 44.219 6.39486 45.6737L12.2829 57.4499C12.7832 58.4475 13.8009 59.0771 14.9165 59.0771C16.0321 59.0771 17.0497 58.4475 17.55 57.4499L20.8046 50.9408L24.0591 57.4499C24.5594 58.4475 25.5771 59.0771 26.6927 59.0771C27.8083 59.0771 28.8259 58.4475 29.3262 57.4499L34.8722 46.3579C35.292 45.8806 35.5623 45.2509 35.6082 44.5524C35.7116 42.9308 34.3921 41.525 32.7705 41.4186Z" fill="#E1F1FA"/>
<path d="M64.6708 45.6521L58.7827 57.4282C58.2528 58.4294 57.2518 59.0771 56.1331 59.0771C55.0143 59.0771 54.0134 58.4294 53.4834 57.4282L50.245 50.9515V41.5304C51.3049 41.5304 52.3647 42.0605 52.8946 43.0613L56.1331 49.5384L59.3715 43.0613C60.137 41.5893 61.9034 41.0007 63.3164 41.7072C64.7884 42.4727 65.3774 44.2389 64.6708 45.6521Z" fill="#BFE1FF"/>
</g>
<defs>
<clipPath id="clip0">
<rect width="100.49" height="100.49" fill="white"/>
</clipPath>
</defs>
</svg>
